# xmcd
#
# Track frame offsets:
#	150
#	31263
#	53774
#	73917
#	85968
#	113228
#	144302
#	179087
#	227019
#	234508
#	247091
#	274374
#	294418
#	313947
#	337181
#
# Disc length: 4694 seconds
#
# Revision: 0
# Processed by: cddbd v1.5.1PL0 Copyright (c) Steve Scherf et al.
# Submitted via: dBpowerAMP V4.0
#
DISCID=ea12540f
DTITLE=Mountain - At Capitol Theater November 3th 1974
DYEAR=1900
DGENRE=Rock
TTITLE0=You Better Belive It
TTITLE1=Theme For an Imaginary Western
TTITLE2=Never in My Life
TTITLE3=Jingle Bells
TTITLE4=Get Out of My Lifw Woman
TTITLE5=Mississippi Queen
TTITLE6=It's For You
TTITLE7=Nantucket Sleighride
TTITLE8=Roll Over Beethoven
TTITLE9=Whole Lotta Shaking Going On
TTITLE10=Interview
TTITLE11=Don't Look Around
TTITLE12=For Yasguars Farm
TTITLE13=Travelling in the Dark
TTITLE14=Blood of the Sun
EXTD=A Windfall record production\nMade in Sweden 2003\nBootleg? Probably. But it sounds greate
EXTT0=
EXTT1=
EXTT2=
EXTT3=
EXTT4=
EXTT5=
EXTT6=
EXTT7=
EXTT8=
EXTT9=
EXTT10=
EXTT11=
EXTT12=
EXTT13=
EXTT14=
PLAYORDER=
